<?xml version="1.0" encoding="UTF-8"?>
<svg width="800px" height="600px" viewBox="0 0 800 600" version="1.1" xmlns="http://www.w3.org/2000/svg" xmlns:xlink="http://www.w3.org/1999/xlink">
    <!-- Generator: Sketch 50.2 (55047) - http://www.bohemiancoding.com/sketch -->
    <title>no hotel available</title>
    <desc>Created with Sketch.</desc>
    <defs>
        <linearGradient x1="33.1448228%" y1="89.4856771%" x2="38.8671875%" y2="4.63324653%" id="linearGradient-1">
            <stop stop-color="#FFFFFF" stop-opacity="0" offset="0%"></stop>
            <stop stop-color="#DFE2EC" offset="100%"></stop>
        </linearGradient>
        <linearGradient x1="38.8671875%" y1="35.1008587%" x2="38.8671875%" y2="0%" id="linearGradient-2">
            <stop stop-color="#FFFFFF" stop-opacity="0" offset="0%"></stop>
            <stop stop-color="#F2F2F2" offset="100%"></stop>
        </linearGradient>
        <linearGradient x1="50%" y1="240.798611%" x2="50%" y2="-54.3023003%" id="linearGradient-3">
            <stop stop-color="#FFFFFF" stop-opacity="0" offset="0%"></stop>
            <stop stop-color="#DFE2EC" offset="100%"></stop>
        </linearGradient>
        <linearGradient x1="39.0574488%" y1="97.4962958%" x2="151.63303%" y2="-39.5833333%" id="linearGradient-4">
            <stop stop-color="#E7ECF6" offset="0%"></stop>
            <stop stop-color="#FAFAFA" offset="100%"></stop>
        </linearGradient>
        <linearGradient x1="38.8671875%" y1="84.5592406%" x2="38.8671875%" y2="0%" id="linearGradient-5">
            <stop stop-color="#FFFFFF" offset="0%"></stop>
            <stop stop-color="#F2F2F2" offset="100%"></stop>
        </linearGradient>
    </defs>
    <g id="no-hotel-available" stroke="none" stroke-width="1" fill="none" fill-rule="evenodd">
        <g id="Group-7" transform="translate(50.000000, 152.000000)">
            <polyline id="Path-5" fill="url(#linearGradient-1)" opacity="0.238224638" points="78 225.89372 78 132.593573 117.586023 132.593573 117.586023 86.7082546 128.930179 86.7082546 127.795763 60.7065742 142.543166 50 159.559399 60.7065742 159.559399 80.5902121 203.801606 68.3541273 204.936021 131.064062 221.952255 138.711615 221.952255 225.89372"></polyline>
            <polyline id="Path-5" fill="url(#linearGradient-1)" opacity="0.4921875" points="545 231.536232 545 174.70903 556.225635 173.807011 556.225635 150.354515 562.828949 147.648458 562.168618 132.314134 570.752926 126 580.657898 132.314134 580.657898 144.040382 606.410824 136.824229 607.071156 173.807011 616.976127 178.317106 616.976127 229.732194"></polyline>
            <polyline id="Path-5" fill="url(#linearGradient-1)" opacity="0.68993433" points="424 233.599777 424 131.310814 444.206142 129.687179 444.206142 87.4726867 456.092108 82.6017837 454.903512 55 470.790731 55 488.184216 55 488.184216 76.1072464 535.72808 78.399436 535.72808 129.687179 553.557029 137.805351 553.557029 230.352508"></polyline>
            <polyline id="Path-5" fill="url(#linearGradient-1)" opacity="0.5" transform="translate(373.493369, 169.669082) scale(-1, 1) translate(-373.493369, -169.669082) " points="343.103448 216.84058 343.103448 162.807773 352.582873 161.95011 352.582873 137.077866 358.159005 137.077866 357.601392 122.497585 364.946204 122.497585 373.214562 122.497585 373.214562 133.647211 395.519091 133.647211 395.519091 161.95011 403.883289 162.807773 403.883289 215.125253"></polyline>
            <path d="M216.440318,225.463768 L216.440318,130.208661 L235.399168,128.696676 L235.399168,89.3850442 L246.551432,84.8490867 L248.190981,0 C248.190981,0 256.355438,25.4748469 268.148541,31.2180602 C279.941645,36.9612735 276.662546,59.1453277 276.662546,59.1453277 L276.662546,78.8011434 C276.662546,78.8011434 296.911266,81.1458281 305.342175,78.8011434 C313.773084,76.4564588 321.271603,75.1545894 321.271603,75.1545894 L321.271603,128.696676 L338,136.256605 L338,222.439796" id="Path-5" fill="url(#linearGradient-1)" opacity="0.8" transform="translate(277.220159, 112.731884) scale(-1, 1) translate(-277.220159, -112.731884) "></path>
            <g id="Group-4" transform="translate(263.127321, 172.497585) scale(-1, 1) translate(-263.127321, -172.497585) translate(255.127321, 152.497585)" fill="#FFFFFF">
                <rect id="Rectangle-31" x="0" y="0" width="15.994695" height="15.9903382"></rect>
                <rect id="Rectangle-31" x="0" y="23.9855072" width="15.994695" height="15.9903382"></rect>
            </g>
            <rect id="Rectangle-41" fill="url(#linearGradient-2)" x="0" y="208" width="700" height="105.536232"></rect>
            <g id="Group-8" transform="translate(439.074271, 141.304348)">
                <rect id="Rectangle-42" fill="url(#linearGradient-3)" x="0" y="0" width="57.5809019" height="57.5652174" rx="28.7826087"></rect>
                <polygon id="Path-18" fill="#E9E9E9" points="26.3912467 30.3816425 24.9964525 49.7301393 19.193634 41.8422675 23.3166632 53.784375 23.3166632 67.1594203 31.5800392 67.1594203 31.5800392 49.7301393 33.5888594 32.1617848 29.2209124 43.0670745"></polygon>
            </g>
            <g id="Group-8" transform="translate(201.549072, 163.690821)">
                <rect id="Rectangle-42" fill="url(#linearGradient-3)" x="0" y="0" width="38.3872679" height="38.3768116" rx="19.1884058"></rect>
                <polygon id="Path-18" fill="#E9E9E9" points="17.5941645 20.7874396 16.6643017 33.4060245 12.795756 28.2617603 15.5444422 36.0500912 15.5444422 44.7729469 21.0533595 44.7729469 21.0533595 33.4060245 22.3925729 21.948402 19.4806083 29.0605474"></polygon>
            </g>
            <g id="Group-9" transform="translate(479.061008, 174.884058)">
                <rect id="Rectangle-42" fill="url(#linearGradient-3)" x="0" y="0" width="30.3899204" height="30.3816425" rx="15.1908213"></rect>
                <polygon id="Path-18" fill="#E9E9E9" points="15.994695 19.1884058 15.3747865 26.7595567 12.795756 23.6729982 14.6282134 28.3459968 14.6282134 33.5797101 18.300825 33.5797101 18.300825 26.7595567 19.193634 19.8849832 17.2523242 24.1522705"></polygon>
            </g>
            <rect id="Rectangle-31" fill="#F7F7F7" x="517.445623" y="115.719807" width="15.994695" height="15.9903382"></rect>
            <rect id="Rectangle-31" fill="#FBFBFB" x="517.445623" y="144.502415" width="15.994695" height="15.9903382"></rect>
            <rect id="Rectangle-31" fill="#FBFBFB" x="495.05305" y="144.502415" width="15.994695" height="15.9903382"></rect>
            <rect id="Rectangle-31" fill="#F7F7F7" x="471.061008" y="115.719807" width="15.994695" height="15.9903382"></rect>
        </g>
        <g id="Group-2" transform="translate(42.000000, 295.000000)">
            <g id="Group">
                <g id="Group-5" transform="translate(120.092247, 0.000000)">
                    <g id="Group-3">
                        <path d="M24.8989921,42.0651311 C34.3570564,42.0651311 42.0243325,34.004731 42.0243325,24.0617236 C42.0243325,14.1187162 34.3570564,6.05831608 24.8989921,6.05831608 C17.5643425,6.05831608 11.3066502,10.9057378 8.86653714,17.7194394 C8.16011319,19.6920374 7.77365167,21.829435 7.77365167,24.0617236 C7.77365167,26.7893831 10.5578117,34.6300294 10.0004769,39.0507096 C9.73723858,41.138669 7.2592729,42.0651311 6.10205773,42.0651311 C5.11205137,42.0651311 19.2610369,42.0651311 24.8989921,42.0651311 Z" id="Oval" fill="#DFE2EC" transform="translate(24.038487, 24.061724) scale(-1, 1) rotate(-66.000000) translate(-24.038487, -24.061724) "></path>
                        <g id="ic_hotel-copy" transform="translate(14.353801, 15.752459)" fill="#FFFFFF">
                            <g id="hotel">
                                <path d="M4.3092,4.73607777 C3.482496,4.73607777 2.81232,3.99772236 2.81232,3.08691479 C2.81232,2.17610723 3.482496,1.43775182 4.3092,1.43775182 C5.135904,1.43775182 5.80608,2.17610723 5.80608,3.08691479 C5.80608,3.99772236 5.135904,4.73607777 4.3092,4.73607777 Z M20.8656,4.6361285 L20.8656,7.43470809 L6.66792,7.43470809 L4.21848,7.43470809 C3.402,7.43470809 2.76696,7.28478419 2.76696,6.53516465 C2.76696,5.73557048 3.44736,5.63562121 4.26384,5.63562121 L6.5772,5.63562121 C6.53184,3.68661042 6.44112,2.63714307 7.16688,2.33729526 C7.75656,2.08742208 13.608,2.93699089 16.82856,3.38676261 C19.278,3.68661042 19.9584,3.28681334 20.8656,4.6361285 Z M20.8656,14.03136 L19.14192,14.03136 L19.14192,10.6330848 L1.63296,10.6330848 L1.63296,14.03136 L0,14.03136 L0,0.738106919 C0,0.188385927 0.4536,-0.111461887 1.04328,0.0384620197 C1.31544,0.0884366553 1.63296,0.338309834 1.63296,0.83805619 L1.63296,8.78402326 L20.8656,8.73404862 L20.8656,14.03136 Z" id="Combined-Shape"></path>
                            </g>
                        </g>
                    </g>
                </g>
                <ellipse id="Oval-2" fill="#F6F6FA" cx="98.9875335" cy="185.361719" rx="33.7457501" ry="1.11342311"></ellipse>
                <g id="Group-13" transform="translate(0.000000, 30.595907)">
                    <g stroke-width="1" transform="translate(0.000000, 21.666462)">
                        <g id="Group-12" transform="translate(0.000000, 48.749538)">
                            <path d="M80.5304309,56.654621 L95.9793034,36.0171565 L102.097432,19.6967832 L110.040393,20.8979406 C109.58872,28.9542996 109.097619,33.9940383 108.567088,36.0171565 C108.036558,38.0402748 97.3665309,49.6258512 76.5570068,70.7738859 L72.2276129,67.8370478 L80.5304309,56.654621 Z" id="Path-6" fill="#EECBC0"></path>
                            <path d="M112.384726,0.37855087 L109.991335,24.4747761 L102.656051,24.4747761 L95.4789677,4.02859938 C100.161744,2.0999682 103.67201,0.883285362 106.009765,0.37855087 C108.34752,-0.126183623 110.472507,-0.126183623 112.384726,0.37855087 Z" id="Path-3" fill="#FEDD00"></path>
                            <path d="M93.9948387,30.2273075 C95.1352536,32.7841302 95.864341,35.8303806 96.1821007,39.3660588 C96.3990169,41.7796622 97.7527868,49.7052328 98.5100572,52.7307933 C99.4365432,56.432429 101.872052,64.2901877 105.816585,76.3040694 L107.961403,81.3280547 L112.077955,79.077432 C110.77868,75.6169651 109.971248,72.601885 109.655658,70.0321919 C107.992828,56.4926129 107.961403,43.8584017 107.961403,39.3660588 C107.961403,33.594805 107.246464,29.5389394 105.816585,27.1984618 L103.036397,24.1285594 L93.9948387,27.1984618 L93.9948387,30.2273075 Z" id="Path-4" fill="#F2D0C5"></path>
                            <path d="M111.305264,75.4705573 L108.225287,76.0564447 L105.336613,74.5087138 L101.910194,63.8814561 C103.170572,64.0571014 104.367778,64.0811644 105.501812,63.953645 C106.635845,63.8261257 107.81044,63.3540062 109.025597,62.5372867 C109.298155,66.0007801 109.58532,68.6548724 109.887093,70.4995636 C110.188866,72.3442547 110.554291,74.0012527 110.983369,75.4705573" id="Path-40" fill="#CACDD8"></path>
                            <path d="M85.5612149,0 C84.9330144,4.3173366 84.9330144,7.74226923 85.5612149,10.2747979 C85.9296205,11.7599883 92.9927565,30.0048044 92.9406246,30.3444655 C92.9406246,30.3444655 95.1925514,29.0921118 99.5069166,28.0627727 C100.879294,27.7353453 103.397393,27.3729267 107.061214,26.975517 C102.798157,12.4405316 101.042086,4.67717318 101.793003,3.68544187 C102.54392,2.69371057 106.290947,1.46522994 113.034087,0 C105.129327,0.457810228 99.1948463,0.686715342 95.2306452,0.686715342 C91.2664442,0.686715342 88.0433008,0.457810228 85.5612149,0 Z" id="Path-2" fill="#FEDD00"></path>
                            <g id="Group-5" transform="translate(103.889032, 73.862937)">
                                <path d="M2.66286822,11.9226363 L3.26508333,13.1470616 C8.07596688,12.2753355 11.6257099,11.54016 13.9143124,10.941535 C17.3472161,10.0435974 20.9753871,8.75531149 22.5616562,7.85315178 C23.6191689,7.25171197 23.893911,6.48558263 23.3858823,5.55476376 L21.0300233,4.95156812 L2.97600926,10.941535 L2.66286822,11.9226363 Z" id="Path-20" fill="#FFFFFF"></path>
                                <path d="M15.0776395,9.36235211 C22.0916742,7.37646303 24.0772117,6.01258183 23.366142,4.80487395 C22.6550723,3.59716607 13.8413728,4.5805865 12.0692681,4.2528194 C10.2971633,3.9250523 10.7761,4.02124266 9.44759073,2.80660335 C8.56191788,1.99684381 7.93978217,1.11111611 7.5811836,0.149420243 C6.15836987,0.574234401 5.08734459,0.809931998 4.36810776,0.856513033 C3.64887093,0.903094068 2.82058855,0.790404239 1.88326061,0.518443545 C0.629254241,0.491876165 0.00225105551,1.08959881 0.00225105551,2.31161148 C0.00225105551,4.14463049 1.54034338,6.12352495 1.88326061,7.37646303 C2.22617785,8.62940112 2.55983995,11.6564335 2.55983995,11.6564335 C2.55983995,11.6564335 8.06360469,11.3482412 15.0776395,9.36235211 Z" id="Path-19" fill="#000000"></path>
                            </g>
                            <path d="M101.910194,63.9528543 L102.223588,64.9353257 C103.838616,65.0389012 105.006967,65.0389012 105.728639,64.9353257 C106.450312,64.8317503 107.573748,64.4450241 109.098948,63.775147 L108.988349,62.5372867 C108.015315,63.3431605 106.868999,63.8150163 105.549399,63.9528543 C104.2298,64.0906923 103.016731,64.0906923 101.910194,63.9528543 Z" id="Path-41" fill="#B9BCC8"></path>
                            <path d="M76.8615945,61.7476597 L83.9644279,52.1964755 C85.0531869,53.5247757 85.9201109,54.4396077 86.5652001,54.9409714 C87.2102892,55.4423351 88.3915671,56.1193672 90.1090337,56.9720676 L79.7365071,67.7714153 L75.6905806,63.7567981 L76.8615945,61.7476597 Z" id="Path-42" fill="#CACDD8"></path>
                            <g id="Group-5" transform="translate(78.672975, 74.036027) rotate(54.000000) translate(-78.672975, -74.036027) translate(66.799943, 67.388363)">
                                <path d="M2.66286822,11.9226363 L3.26508333,13.1470616 C8.07596688,12.2753355 11.6257099,11.54016 13.9143124,10.941535 C17.3472161,10.0435974 20.9753871,8.75531149 22.5616562,7.85315178 C23.6191689,7.25171197 23.893911,6.48558263 23.3858823,5.55476376 L21.0300233,4.95156812 L2.97600926,10.941535 L2.66286822,11.9226363 Z" id="Path-20" fill="#FFFFFF"></path>
                                <path d="M15.0776395,9.36235211 C22.0916742,7.37646303 24.0772117,6.01258183 23.366142,4.80487395 C22.6550723,3.59716607 13.8413728,4.5805865 12.0692681,4.2528194 C10.2971633,3.9250523 10.7761,4.02124266 9.44759073,2.80660335 C8.56191788,1.99684381 7.93978217,1.11111611 7.5811836,0.149420243 C6.15836987,0.574234401 5.08734459,0.809931998 4.36810776,0.856513033 C3.64887093,0.903094068 2.82058855,0.790404239 1.88326061,0.518443545 C0.629254241,0.491876165 0.00225105551,1.08959881 0.00225105551,2.31161148 C0.00225105551,4.14463049 1.54034338,6.12352495 1.88326061,7.37646303 C2.22617785,8.62940112 2.55983995,11.6564335 2.55983995,11.6564335 C2.55983995,11.6564335 8.06360469,11.3482412 15.0776395,9.36235211 Z" id="Path-19" fill="#000000"></path>
                            </g>
                            <path d="M83.7369775,52.1964755 C84.7398443,53.4831618 85.574058,54.3994524 86.2396185,54.9453475 C86.905179,55.4912426 88.0864345,56.2280469 89.7833851,57.1557604 L89.0337988,57.9139574 C87.5263972,57.0630456 86.3547806,56.2985408 85.5189489,55.620443 C84.6831172,54.9423451 83.8805429,54.0664379 83.1112258,52.9927212 L83.7369775,52.1964755 Z" id="Path-43" fill="#B9BCC8"></path>
                            <g id="Group-25" transform="translate(48.338814, 47.905954) scale(-1, 1) rotate(15.000000) translate(-48.338814, -47.905954) translate(7.772621, 12.697954)">
                                <rect id="Rectangle-44" fill="#D3DBEF" transform="translate(75.720156, 52.196476) rotate(44.000000) translate(-75.720156, -52.196476) " x="71.2919663" y="49.241958" width="8.85637868" height="5.90903497" rx="2.95451748"></rect>
                                <polygon id="Line-6" fill="#CACDD8" fill-rule="nonzero" points="0.111485216 1.35262301 1.56204726 0.16543072 18.8035458 14.9164493 17.5179278 16.4078045"></polygon>
                                <rect id="Rectangle-43" fill="#CACDD8" transform="translate(45.141281, 35.377611) rotate(-47.000000) translate(-45.141281, -35.377611) " x="31.1728612" y="1.38368381" width="27.9368387" height="67.9878549" rx="12.096"></rect>
                                <ellipse id="Oval-10" fill="#D3DBEF" cx="60.4675035" cy="64.9993846" rx="4.92021038" ry="4.9241958"></ellipse>
                                <polygon id="Path-37" fill="url(#linearGradient-4)" points="20.9061772 11.4547662 71.4947328 56.890571 74.292622 53.9050368 24.0396881 8.15882501"></polygon>
                                <path d="M39.5438707,30.7126101 C39.8040062,30.3985564 40.2692726,30.3550179 40.5830721,30.6153641 C40.8968717,30.8757104 40.9403749,31.3413536 40.6802394,31.6554074 L39.5461075,33.0246103 C38.9436075,33.7519902 39.0385772,34.8292437 39.7588791,35.4396775 L46.1230977,40.8302513 C46.8484479,41.4449634 47.9342694,41.3552988 48.5496678,40.629289 L49.8409072,39.1093895 C50.104935,38.7986062 50.5707075,38.7608767 50.8812393,39.0251183 C51.1917711,39.28936 51.2294701,39.7555098 50.9654423,40.0662932 L49.674734,41.5855668 C48.5328375,42.9327085 46.5163119,43.0992284 45.1693826,41.9577472 L38.8051641,36.5671733 C37.4671826,35.4332751 37.2908103,33.4326614 38.4097387,32.0818131 L39.5438707,30.7126101 Z" id="Path-38" fill="#EBEFF6" fill-rule="nonzero"></path>
                            </g>
                        </g>
                        <path d="M115.267355,27.3944331 C116.21908,28.7660237 116.885825,29.6944783 117.26759,30.1797969 C117.840238,30.9077749 119.245719,32.698745 121.572859,32.698745 C123.805802,32.698745 127.094514,27.8104381 135.011633,17.7437047 C136.169475,16.2714916 138.83894,14.7067731 139.094735,11.8288528 C139.265265,9.91023935 139.343663,8.00497864 139.329928,6.11307073 C137.709616,5.79388244 136.89946,6.20571134 136.89946,7.34855744 C136.89946,7.86606877 137.950788,8.40415767 137.652546,8.93171448 C136.962853,10.1517027 135.714455,11.2879413 135.011633,11.8288528 C134.895302,11.9183843 133.487893,12.2159562 133.4008,12.203138 C132.734171,12.1050264 133.280425,9.45537376 132.799621,9.45537376 C132.182814,9.45537376 131.005701,10.9090385 130.935356,12.609137 C130.862717,14.3646697 130.635545,15.8515816 130.307424,16.0984743 C129.661543,16.5844635 122.160246,24.2184224 121.572859,24.4329706 C120.702372,24.7509229 119.989698,23.9709879 119.434837,22.0931655 L115.267355,27.3944331 Z" id="Path-25" fill="#F2D0C5"></path>
                        <path d="M135.910468,2.06466362 L137.624195,1.43604486 C138.504933,1.11297786 139.48081,1.56505974 139.803877,2.44579799 C139.901064,2.71074481 139.930706,2.9957311 139.890127,3.27500751 L138.369924,13.7375101 C138.256151,14.5205279 137.62509,15.126238 136.838068,15.2078288 L135.189592,15.3787267 C134.240331,15.4771368 133.391026,14.7873862 133.292616,13.8381256 C133.277628,13.6935476 133.280941,13.5476562 133.302477,13.4039076 L134.796624,3.43093398 C134.89023,2.80613849 135.317344,2.28222986 135.910468,2.06466362 Z" id="Rectangle" fill="#D8D8D8" transform="translate(136.623491, 8.127753) rotate(13.000000) translate(-136.623491, -8.127753) "></path>
                        <polygon id="Rectangle" fill="#ACACAC" transform="translate(136.128782, 8.127753) rotate(13.000000) translate(-136.128782, -8.127753) " points="134.453739 2.41754564 139.805232 0.454544076 137.681737 15.0690787 132.47746 15.6086073"></polygon>
                        <path d="M136.75946,14.9617037 C135.804797,14.2295859 135.415302,13.6582984 135.590976,13.2478412 C135.854486,12.6321553 136.698748,13.436589 136.965401,13.0598948 C137.232054,12.6832006 136.66692,11.8378637 136.965401,11.3062258 C137.263882,10.7745879 137.983216,11.927686 138.055495,11.3062258 C138.127775,10.6847657 137.094212,9.51667168 137.226736,9.05926445 C137.284343,8.86043488 138.022725,8.45861354 138.483409,8.78330121 C138.64731,8.89881771 138.790814,9.30155794 138.913921,9.99152189 C138.661906,11.5570802 138.375765,12.64252 138.055495,13.2478412 C137.735226,13.8531624 137.303214,14.4244499 136.75946,14.9617037 Z" id="Path-26" fill="#F8E4E4"></path>
                    </g>
                    <path d="M79.4978435,35.5275916 C77.9490876,31.6242643 77.1747097,28.9625639 77.1747097,27.5424907 C77.1747097,26.1224174 77.7123017,25.282491 78.7874856,25.0227114 C83.1108475,23.1541438 88.8385565,21.9451109 95.9706127,21.3956128 C106.668697,20.5713656 110.403347,20.3238934 112.22824,21.3956128 C113.444836,22.1100923 114.219435,25.7518923 114.552037,32.3210127 L79.4978435,35.5275916 Z" id="Path-44" fill="#CACDD8"></path>
                    <path d="M76.0764105,50.7192168 C76.5114655,57.3320109 76.5114655,62.6773469 76.0764105,66.7552248 C75.8135954,69.218656 75.0083907,70.1681664 74.260917,72.2122984 C73.7710489,73.551951 72.431764,76.0932075 72.7791293,77.2653917 C73.1264945,78.437576 75.6021876,75.1772251 76.0764105,75.9338604 C76.952964,77.3324248 75.2263051,77.0609955 74.260917,79.243425 C73.5918306,80.7560125 74.6863186,80.5949994 76.0764105,79.8164356 C77.4665025,79.0378717 79.6370556,78.7875554 80.4011874,75.9338604 C81.1653193,73.0801655 80.5842584,69.0288871 81.157364,63.3055811 C81.1694008,63.1853752 81.4017526,63.4260822 81.413426,63.3055811 C81.6526651,60.8359776 82.0381255,56.977453 82.5698071,51.7300073 L76.0764105,50.7192168 Z" id="Path-31" fill="#F2D0C5"></path>
                    <path d="M92.7697531,24.4440683 C86.5614707,26.9806495 82.6896233,29.3365014 81.154211,31.511624 C79.6187987,33.6867466 77.3028789,39.7852581 74.2064516,49.8071586 C75.4122671,50.9800336 76.3372763,51.6304071 76.9814793,51.758279 C77.6256824,51.8861509 79.5653516,51.8861509 82.8004871,51.758279 C83.1384343,63.6062703 83.6587557,70.8441799 84.3614513,73.4720078 C84.7859852,75.0596116 87.1641725,73.1432984 93.9886384,72.1493906 C94.8978394,72.0169756 98.9493323,72.2010329 100.389927,72.1493906 C102.578387,72.070939 106.705337,71.603302 112.770778,70.7464798 C113.088707,68.6152055 113.247672,66.9741497 113.247672,65.8233124 C113.247672,64.6724751 113.410218,58.7626829 113.735312,48.0939359 L115.396845,49.8071586 C116.845498,48.5618098 117.862156,47.5201057 118.446819,46.6820464 C119.031482,45.8439871 119.578162,44.6447918 120.086861,43.0844606 C117.238588,37.0122591 114.799894,32.3185051 112.770778,29.0031986 C109.727103,24.0302389 110.867365,26.3615952 104.82884,24.9851446 C100.803157,24.0675108 96.783461,23.887152 92.7697531,24.4440683 Z" id="Path-24" fill="#0064D2"></path>
                    <g id="Group-11" stroke-width="1" transform="translate(89.047742, 5.416615)">
                        <path d="M3.95767742,12.8029091 C3.95767742,15.0514459 3.95767742,17.0843573 3.95767742,18.9016432 C3.95767742,21.6275721 6.98683446,22.6103654 9.80936502,22.6103654 C11.6910521,22.6103654 13.6732159,21.7603825 15.7558566,20.0604168 C15.3153448,19.4061562 14.9995948,19.0198983 14.8086066,18.9016432 C14.6176184,18.7833881 11.000642,16.7504767 3.95767742,12.8029091 Z" id="Path-22" fill="#EECBC0"></path>
                        <path d="M17.6570345,3.20785347 C17.6830046,10.3085366 17.3038152,14.9687083 16.5194664,17.1883687 C16.009086,18.6327146 12.4783834,21.9288867 8.78808601,20.4603524 C5.34599714,19.0905913 3.48813434,16.7261973 3.21449763,13.3671703 C1.44529478,12.4261838 0.420520023,11.2884569 0.140173341,9.95398963 C-0.140173341,8.61952234 2.22044605e-16,7.6619256 0.560693363,7.08119943 L4.41215306,0 L19.2936774,1.10258632 L17.6570345,3.20785347 Z" id="Path-23" fill="#F2D0C5"></path>
                    </g>
                    <path d="M89.4660312,12.5988132 C88.9083122,9.93811858 88.9083122,7.79844228 89.4660312,6.17978427 C90.0237502,4.56112627 91.2169967,3.25452254 93.0457706,2.25997307 C94.4474706,0.32976732 96.69207,-0.364020743 99.7795688,0.178608885 C102.867068,0.721238513 105.377421,2.25071222 107.31063,4.76703001 C108.04498,4.46687032 108.444891,4.46687032 108.510362,4.76703001 C108.608569,5.21726955 107.476871,5.79463709 107.618782,6.17978427 C107.71339,6.43654906 108.284076,6.82492579 109.330839,7.34491446 C109.026067,7.77821869 108.218555,8.18335653 106.908305,8.56032799 C104.942929,9.12578517 100.516949,8.75607636 98.6545068,8.56032799 C96.7920643,8.36457961 95.6708294,7.34491446 94.8881572,7.34491446 C94.105485,7.34491446 94.5994538,9.07445851 94.0235739,11.5652788 C93.447694,14.056099 93.4268507,14.0494644 92.8409044,14.2541615 C92.254958,14.4588587 91.891826,13.4048765 91.1356201,12.854579 C90.6314828,12.487714 90.0749532,12.4024587 89.4660312,12.5988132 Z" id="Path-21" fill="#000000"></path>
                    <path d="M77.5815847,51.8918217 C76.3682161,51.2976067 78.1059468,60.504042 79.6839162,64.2969169 C80.7358958,66.8255001 82.2249519,68.1569403 84.1510845,68.2912376 C85.4617797,60.6550265 86.326382,55.0133534 86.7448914,51.3662182 C87.1634008,47.719083 87.9085054,39.2964228 88.9802052,26.0982378 C88.0437274,26.528996 86.9641623,27.0453096 85.7415098,27.6471787 C84.5188574,28.2490477 84.136251,28.763922 84.5936907,29.1918016 L82.6761575,51.8918217 C80.088688,52.287965 78.3904971,52.287965 77.5815847,51.8918217 Z" id="Path-45" fill="#B9BCC8"></path>
                    <path d="M107.84671,25.1133986 C108.496124,29.7859976 108.974103,33.0026819 109.280645,34.7634517 C109.476306,35.8873233 111.759701,43.8394242 111.867643,44.6987766 C112.144365,46.9018328 111.584176,52.6076229 111.867643,59.7156808 C111.925615,61.1693424 112.292984,63.2305468 112.96975,65.899294 C113.403034,63.1174028 113.653948,60.8956704 113.722494,59.234097 C113.785357,57.7102693 113.187692,53.7552994 113.722494,48.255534 C113.754723,47.9241014 114.103827,47.5584329 114.769807,47.1585286 C113.90839,40.799971 113.308371,36.4005157 112.96975,33.9601629 C112.461819,30.2996337 112.041003,28.1903948 110.810307,26.6651078 C109.989842,25.6482497 109.001977,25.1310133 107.84671,25.1133986 Z" id="Path-47" fill="#B9BCC8"></path>
                    <path d="M79.2107637,35.5641377 C77.4007941,30.1160854 76.793759,26.9415678 77.3896585,26.0405848 C77.985558,25.1396019 79.7358598,26.4308978 82.6405638,29.9144727 L79.2107637,35.5641377 Z" id="Path" fill="#B9BCC8"></path>
                </g>
            </g>
        </g>
        <path d="M264.502111,393.739908 C263.498913,394.014546 261.402252,393.827039 259.524284,394.764282 C257.646619,395.702702 257.581496,397.389386 257.697506,397.951614 C257.763841,398.274821 258.007674,398.449671 258.203952,398.539157 C258.284523,398.172384 258.407499,397.780296 258.602566,397.402043 C259.470066,395.918762 261.167809,395.476045 261.451927,395.379494 C261.603377,395.331219 261.879014,395.262045 262.204326,395.194342 C262.534485,395.131054 262.889482,395.051871 263.237209,394.930889 C263.925999,394.710119 264.517559,394.442251 264.516347,394.442251 C264.517559,394.442251 263.963861,394.778116 263.295365,395.076009 C262.968841,395.231137 262.586584,395.358889 262.271873,395.447197 C261.95595,395.542864 261.694246,395.627934 261.548855,395.675032 C261.404372,395.72213 260.949117,395.859007 260.429647,396.171618 C260.167034,396.331455 259.90533,396.525733 259.623938,396.776528 C259.364657,396.988173 259.154143,397.274291 259.006329,397.591906 C258.747048,398.145891 258.654664,398.755511 258.62286,399.246504 C258.789757,399.446375 259.112646,399.627995 259.729043,399.663907 C265.067622,399.201467 265.903014,392.83946 265.903014,392.83946 C265.903014,392.83946 265.505612,393.464976 264.502111,393.739908 Z" id="Fill-1" fill="#FEDD00" opacity="0.5" transform="translate(261.782494, 396.251684) rotate(373.000000) translate(-261.782494, -396.251684) "></path>
        <path d="M257.198744,429.762598 C254.977877,430.163068 250.336318,429.88965 246.178898,431.256312 C242.022148,432.62469 241.87798,435.084166 242.134801,435.903992 C242.281652,436.375284 242.821446,436.630245 243.255963,436.76073 C243.43433,436.225912 243.706574,435.654181 244.138409,435.102623 C246.058869,432.939743 249.817311,432.294185 250.446289,432.153398 C250.781565,432.083005 251.391767,431.982136 252.111939,431.883414 C252.84284,431.79113 253.628727,431.675667 254.39852,431.499255 C255.923355,431.177334 257.232942,430.786736 257.23026,430.786736 C257.232942,430.786736 256.007174,431.276485 254.527266,431.710864 C253.804412,431.937067 252.958175,432.123352 252.261472,432.25212 C251.562087,432.391619 250.98273,432.515666 250.660865,432.584343 C250.341012,432.653019 249.333173,432.85261 248.183177,433.30845 C247.601809,433.541521 247.022452,433.824811 246.39951,434.190514 C245.825517,434.499129 245.359484,434.916338 245.032255,435.379475 C244.458262,436.187282 244.253744,437.076213 244.183336,437.792165 C244.55281,438.083611 245.267618,438.348445 246.632191,438.40081 C258.450664,437.726493 260.300045,428.44959 260.300045,428.44959 C260.300045,428.44959 259.420282,429.361699 257.198744,429.762598 Z" id="Fill-1" fill="#FEDD00" opacity="0.5" transform="translate(251.178094, 433.425200) rotate(377.000000) translate(-251.178094, -433.425200) "></path>
        <g id="Group-10" transform="translate(528.000000, 108.000000)">
            <path d="M97.2389255,15.8912367 C98.6645765,6.88533523 106.462433,0 115.868263,0 C126.285611,0 134.730539,8.4458826 134.730539,18.8644068 C134.730539,22.1785935 133.875989,25.2931669 132.375235,27.9997573 C131.203202,27.0335975 129.82213,26.1198361 128.198686,25.3372433 C119.707763,21.244132 114.12533,25.3372433 114.12533,25.3372433 C114.12533,25.3372433 109.7875,17.5886186 99.5999563,16.1129911 C98.8152168,15.9993245 98.0264473,15.9273227 97.2389248,15.8912411 Z" id="Combined-Shape" fill="#FEDD00"></path>
            <path d="M0,41.3877298 C0,41.3877298 5.15664955,32.2477267 11.6430012,29.40175 C18.1293528,26.5557734 25.2846095,27.0140064 25.2846095,27.0140064 C25.2846095,27.0140064 25.612981,9.19428825 50.0969314,6.57434583 C74.5808819,3.9544034 78.5456643,20.1836624 78.5456643,20.1836624 C78.5456643,20.1836624 89.4124121,14.6373636 99.5999563,16.1129911 C109.7875,17.5886186 114.12533,25.3372433 114.12533,25.3372433 C114.12533,25.3372433 119.707763,21.244132 128.198686,25.3372433 C136.689609,29.4303546 138.550498,37.1115728 138.550498,37.1115728 C138.550498,37.1115728 149.161764,37.1115728 149.161764,45.7645748 C149.161764,54.4175768 141.611245,52.1880571 141.611245,52.1880571" id="Path-13" fill="url(#linearGradient-5)"></path>
        </g>
        <path d="M164,150.528712 C164,150.528712 166.869381,145.443397 170.478665,143.859953 C174.087949,142.276508 178.069441,142.53146 178.069441,142.53146 C178.069441,142.53146 178.252161,132.616925 191.87608,131.159242 C205.5,129.701558 207.706175,138.731193 207.706175,138.731193 C207.706175,138.731193 213.752899,135.645344 219.421686,136.466353 C225.090472,137.287363 227.504226,141.598543 227.504226,141.598543 C227.504226,141.598543 230.610531,139.321217 235.335245,141.598543 C240.059959,143.875868 241.095437,148.149544 241.095437,148.149544 C241.095437,148.149544 247,148.149544 247,152.963901 C247,157.778259 242.798568,156.537798 242.798568,156.537798" id="Path-13" fill="url(#linearGradient-5)"></path>
        <g id="Group-15" transform="translate(633.000000, 401.000000)" fill="#FEDD00">
            <path d="M4.01156149,35.5490389 C3.53816512,35.7032508 2.54877813,35.5979636 1.66258927,36.1242343 C0.776543335,36.6511662 0.745812592,37.5982551 0.800556195,37.9139515 C0.831858672,38.0954355 0.946920291,38.1936154 1.03954132,38.2438624 C1.07756168,38.037916 1.13559276,37.817755 1.22764205,37.6053624 C1.63700414,36.7724861 2.43814746,36.5238959 2.57221926,36.4696821 C2.6436861,36.4425752 2.77375576,36.403733 2.92726654,36.3657172 C3.08306426,36.3301807 3.25058254,36.2857188 3.41467041,36.2177862 C3.73970162,36.0938217 4.01885111,35.9434114 4.01827938,35.9434114 C4.01885111,35.9434114 3.75756833,36.1320028 3.44211368,36.2992722 C3.28803117,36.386378 3.10764885,36.4581121 2.95914075,36.5076979 C2.81006091,36.5614159 2.68656621,36.6091835 2.61795804,36.6356293 C2.54977867,36.6620751 2.33494933,36.7389331 2.08981806,36.9144668 C1.96589455,37.0042171 1.84239985,37.1133059 1.70961445,37.2541296 C1.58726321,37.3729703 1.4879243,37.5336283 1.41817266,37.7119719 C1.29582142,38.0230402 1.25222665,38.3653476 1.23721861,38.6410447 C1.31597507,38.7532739 1.46834238,38.8552554 1.75921244,38.8754203 C4.27841869,38.615756 4.6726298,35.0434289 4.6726298,35.0434289 C4.6726298,35.0434289 4.4851008,35.3946618 4.01156149,35.5490389 Z" id="Fill-1" opacity="0.3" transform="translate(2.728210, 36.959425) rotate(362.000000) translate(-2.728210, -36.959425) "></path>
            <path d="M66.478369,2.09210036 C65.3489513,1.8033097 64.185082,1.65741026 63.0032377,1.65741026 C60.5811312,1.65741026 58.3282875,2.29214805 56.496354,3.50145891 C53.535003,5.37107756 51.5233214,8.53122945 51.0904279,11.968139 C50.5287148,15.4471639 51.9906666,19.1126995 54.7183451,21.1222011 C57.5209186,23.2490239 61.6461391,23.6130205 64.3543448,21.9208877 C67.3965826,20.0828556 68.7312127,16.0924306 67.344156,13.025534 C66.6371466,11.4868213 65.2560815,10.2880393 63.6518291,9.81875444 C63.1784922,9.67736735 62.6991638,9.60065733 62.2303206,9.58260792 C62.7156407,9.61870675 63.2024586,9.72399501 63.6518291,9.88343151 C65.1976633,10.4113769 66.4903522,11.6342248 67.1044918,13.1548881 C67.4145574,13.8904018 67.5733349,14.6951049 67.5553601,15.4757422 C67.5373853,16.2984947 67.3965826,17.0565702 67.1104834,17.8552568 C66.5367872,19.3653913 65.4313359,20.675478 64.0682456,21.4696523 C63.0676475,22.0743078 61.8438621,22.4037096 60.5451815,22.4037096 C58.6323614,22.4037096 56.6835917,21.7103112 55.1916819,20.5055127 C52.7276341,18.5366223 51.5173298,15.3117933 52.0266162,12.0914767 C52.4475265,8.95990307 54.3258949,6.06297183 57.0460839,4.38287205 C58.3387728,3.56011951 59.8666322,3.02014115 61.4529098,2.82610993 C62.1194759,2.73887109 62.9732797,2.72683815 63.8450583,2.79753169 C64.6464356,2.86672112 65.4538044,3.00209174 66.1922698,3.19010648 C69.2749509,3.98428078 72.1014909,5.93512181 73.9439096,8.53724592 C75.8702108,11.151403 76.7824328,14.313059 76.5832119,17.6567133 C76.4484008,20.8815422 75.3429495,24.1484865 73.4765644,26.8273206 C71.6161708,29.5181877 68.9364252,31.7157041 65.9286392,33.0137579 C64.5475741,33.6259339 62.9508112,34.060624 61.1832875,34.3193323 C60.0838279,34.4772647 58.9304438,34.5013306 57.5373955,34.5178759 L18.7567281,35.0413089 L12.1854346,35.2940007 L56.0335025,35.3240831 C56.542789,35.3240831 57.0520755,35.3240831 57.5553703,35.3300996 L58.4855671,35.3346119 C59.3169024,35.3346119 60.2995257,35.3180666 61.2761574,35.2112742 C63.0556643,34.9886648 64.746795,34.5419417 66.2911313,33.8846422 C69.4741718,32.556506 72.3231803,30.2642302 74.3138913,27.4274637 C76.3315645,24.5952095 77.5313835,21.134234 77.7066379,17.679275 C77.9522938,14.1716719 76.9397124,10.5873587 74.9220392,7.82579811 C72.9088597,5.01159336 69.8306724,2.92688584 66.478369,2.09210036 Z" id="Fill-1"></path>
            <path d="M36.3440497,31.0670289 L37.4674757,31.0790618 C37.8314658,31.0850783 38.1699915,31.0910947 38.5100151,31.0910947 C39.1061799,31.0910947 39.8910802,31.0790618 40.7089344,30.9557241 C42.2832287,30.6970158 43.7811302,30.0276833 45.0333757,29.016916 C47.596285,26.9908691 48.9369068,23.6171325 48.462072,20.4208818 C47.976752,17.2246311 45.2086302,14.5518134 42.0255897,14.2163951 C40.3239737,13.9998021 38.7197213,14.4104263 37.5258939,15.3444836 C36.2272134,16.3206561 35.3853928,17.77213 35.1981551,19.3469415 C34.9584909,20.9443148 35.548664,22.6018528 36.7020481,23.5945707 C37.8539343,24.6459492 39.6678929,25.0565734 41.0369748,24.5812721 C42.0255897,24.2518703 42.826967,23.4531836 43.2194171,22.4950605 C42.7580635,23.406556 41.9027618,24.1164997 40.8916783,24.3466297 C40.5801148,24.4173233 40.3000073,24.451918 40.0198997,24.451918 C38.9009674,24.451918 37.7610644,23.9645837 37.0285906,23.1824424 C36.0519589,22.1551298 35.6774835,20.8390266 35.9755659,19.3815362 C36.233205,18.1120607 37.0465654,16.8606345 38.0876069,16.1085755 C39.1825728,15.3279383 40.4348184,15.0331312 41.8922765,15.2512283 C44.6004822,15.5971754 46.9177357,17.9300624 47.2682446,20.6570283 C47.7430794,23.3584242 46.5896953,26.4087755 44.3847844,28.2122129 C43.3018017,29.1282208 41.9611799,29.7569421 40.5336799,30.0216669 C39.9494984,30.1389881 39.3817937,30.163054 38.7496793,30.1750869 L15.7658802,30.7857588 C14.6664205,30.8790141 13.5370029,30.9617406 12.4015936,31.0444671 L35.8242779,31.0730453 C35.9755659,31.0670289 36.1628036,31.0670289 36.3440497,31.0670289 Z" id="Fill-3"></path>
            <path d="M29.5684946,16.8824781 C29.1143266,17.0304262 28.1651265,16.9294155 27.3149327,17.4343103 C26.4648761,17.9398393 26.4353936,18.8484595 26.4879136,19.1513329 C26.5179447,19.3254454 26.6283327,19.4196375 26.7171917,19.4678435 C26.7536677,19.2702622 26.8093417,19.0590437 26.8976521,18.8552781 C27.2903868,18.0562314 28.0589894,17.8177385 28.1876155,17.7657267 C28.2561795,17.7397208 28.380966,17.7024563 28.5282415,17.6659846 C28.677711,17.6318915 28.838425,17.5892355 28.995848,17.5240623 C29.3076771,17.4051329 29.5754882,17.260832 29.5749397,17.260832 C29.5754882,17.260832 29.3248181,17.4417632 29.0221766,17.6022385 C28.8743526,17.6858062 28.701297,17.7546266 28.558821,17.8021984 C28.4157965,17.8537344 28.2973179,17.8995619 28.2314964,17.9249334 C28.1660864,17.950305 27.9599829,18.0240412 27.7248084,18.1924452 C27.6059184,18.27855 27.4874398,18.3832079 27.3600478,18.5183116 C27.2426663,18.6323252 27.1473623,18.7864576 27.0804438,18.9575573 C26.9630622,19.2559907 26.9212382,19.5843943 26.9068397,19.8488931 C26.9823973,19.9565638 27.1285757,20.054403 27.4076313,20.0737489 C29.8245127,19.8246315 30.2027117,16.3974049 30.2027117,16.3974049 C30.2027117,16.3974049 30.0227998,16.7343714 29.5684946,16.8824781 Z" id="Fill-1" opacity="0.3" transform="translate(28.337270, 18.235577) rotate(215.000000) translate(-28.337270, -18.235577) "></path>
            <path d="M88.4013002,1.3480906 C87.4553853,1.65622838 85.4784459,1.44584921 83.7077114,2.4974148 C81.9372626,3.55030146 81.8758581,5.4427232 81.9852438,6.07353045 C82.0477907,6.43616205 82.2777006,6.63233981 82.4627709,6.73274054 C82.5387411,6.32122963 82.6546956,5.88131589 82.8386235,5.45692462 C83.6565886,3.79271639 85.2573897,3.29599696 85.5252847,3.18766985 C85.6680859,3.1335063 85.927984,3.05589389 86.2347209,2.97993281 C86.5460275,2.90892571 86.8807534,2.82008427 87.2086249,2.68434512 C87.8580846,2.43664593 88.4158659,2.13610426 88.4147235,2.13610426 C88.4158659,2.13610426 87.8937849,2.51293728 87.2634605,2.84716605 C86.9555812,3.021216 86.5951511,3.16455126 86.2984102,3.26363094 C86.000527,3.37096725 85.7537666,3.466414 85.6166775,3.51925649 C85.4804451,3.57209898 85.0511848,3.72567248 84.5613768,4.07641452 C84.3137596,4.25574872 84.0669992,4.473724 83.8016746,4.75511027 C83.557199,4.99257122 83.3587054,5.31358936 83.2193315,5.66994592 C82.9748559,6.29150573 82.8877471,6.97548574 82.8577589,7.52636872 C83.0151258,7.75061904 83.3195779,7.9543929 83.9007786,7.99468531 C88.9345198,7.47583809 89.722211,0.337808203 89.722211,0.337808203 C89.722211,0.337808203 89.3475008,1.03962255 88.4013002,1.3480906 Z" id="Fill-1" opacity="0.3" transform="translate(85.836976, 4.166247) rotate(362.000000) translate(-85.836976, -4.166247) "></path>
        </g>
        <path d="" id="Path-4" stroke="#979797"></path>
        <path d="" id="Path-6" stroke="#979797"></path>
        <path d="" id="Path-31" stroke="#979797"></path>
        <path d="" id="Path-33" stroke="#979797"></path>
        <g id="Group-6" transform="translate(307.000000, 316.000000)">
            <rect id="Rectangle-5" fill="#D9DDE3" x="1.825" y="36.4285714" width="3.65" height="14.5714286"></rect>
            <rect id="Rectangle-5" fill="#D9DDE3" x="67.525" y="36.4285714" width="3.65" height="14.5714286"></rect>
            <rect id="Rectangle-5" fill="#D9DDE3" x="10.95" y="29.1428571" width="3.65" height="18.2142857"></rect>
            <rect id="Rectangle-5" fill="#D9DDE3" x="58.4" y="29.1428571" width="3.65" height="18.2142857"></rect>
            <rect id="Rectangle" fill="#D9DDE3" x="10.95" y="0" width="3.65" height="36.4285714"></rect>
            <rect id="Rectangle" fill="#D9DDE3" x="58.4" y="0" width="3.65" height="36.4285714"></rect>
            <polygon id="Rectangle-3" fill="#E8EAF1" points="6.48888889 21.8571429 66.5111111 21.8571429 73 32.7857143 1.11022302e-16 32.7857143"></polygon>
            <rect id="Rectangle-4" fill="#D9DDE3" x="1.825" y="32.7857143" width="69.35" height="3.64285714"></rect>
            <rect id="Rectangle-2" fill="#E8EAF1" x="3.65" y="0" width="65.7" height="7.28571429" rx="0.91125"></rect>
            <rect id="Rectangle-2" fill="#E8EAF1" x="3.65" y="10.9285714" width="65.7" height="7.28571429" rx="0.91125"></rect>
        </g>
    </g>
</svg>